<?xml version="1.0" standalone="no"?>
<!DOCTYPE svg PUBLIC "-//W3C//DTD SVG 20010904//EN"
 "http://www.w3.org/TR/2001/REC-SVG-20010904/DTD/svg10.dtd">
<svg version="1.0" xmlns="http://www.w3.org/2000/svg"
 width="401.000000pt" height="462.000000pt" viewBox="0 0 401.000000 462.000000"
 preserveAspectRatio="xMidYMid meet">
<metadata>
Created by potrace 1.11, written by Peter Selinger 2001-2013
</metadata>
<g transform="translate(0.000000,462.000000) scale(0.100000,-0.100000)"
fill="#ffffff" stroke="none">
<path d="M2482 4463 c-31 -12 -32 -41 -8 -155 27 -129 38 -198 32 -198 -3 0
-29 35 -59 78 -94 132 -150 179 -183 152 -30 -26 -47 -117 -42 -229 6 -139 39
-237 164 -486 l95 -190 -11 -80 c-31 -226 -92 -360 -180 -393 -14 -5 -72 -17
-130 -27 -353 -58 -656 -154 -935 -294 -373 -188 -582 -392 -735 -713 -117
-247 -240 -705 -240 -896 0 -33 -7 -52 -25 -74 -51 -61 -69 -108 -70 -183 0
-58 5 -78 27 -116 34 -57 102 -121 166 -153 27 -14 57 -37 66 -51 104 -159
224 -194 701 -210 l200 -7 165 -56 165 -56 155 -1 c226 0 258 16 238 126 -14
77 -53 143 -122 205 -33 30 -63 54 -68 54 -28 0 12 29 160 115 186 108 210
126 332 235 110 99 133 114 166 106 37 -10 67 -83 104 -260 35 -167 41 -183
86 -246 18 -25 60 -94 94 -155 81 -143 130 -208 173 -228 45 -22 188 -22 275
-2 180 42 218 119 114 229 -28 29 -59 70 -69 92 -49 96 -90 343 -76 448 3 28
19 86 35 130 53 145 133 483 172 726 8 52 20 165 26 250 17 258 32 352 82 510
36 113 54 150 72 150 8 0 41 20 73 44 114 83 191 242 181 370 -7 81 -61 198
-163 351 -148 221 -231 273 -544 340 l-144 30 -18 53 c-46 134 -205 423 -305
553 -73 95 -139 134 -192 112z"/>
</g>
</svg>
