<?xml version="1.0" standalone="no"?>
<!DOCTYPE svg PUBLIC "-//W3C//DTD SVG 20010904//EN"
 "http://www.w3.org/TR/2001/REC-SVG-20010904/DTD/svg10.dtd">
<svg version="1.0" xmlns="http://www.w3.org/2000/svg"
 width="378.000000pt" height="264.000000pt" viewBox="0 0 378.000000 264.000000"
 preserveAspectRatio="xMidYMid meet">
<metadata>
Created by potrace 1.11, written by Peter Selinger 2001-2013
</metadata>
<g transform="translate(0.000000,264.000000) scale(0.100000,-0.100000)"
fill="#ffffff" stroke="none">
<path d="M3237 2532 c-21 -23 -22 -65 -2 -82 12 -10 15 -41 15 -159 0 -153
-16 -464 -26 -493 -3 -10 -34 -31 -69 -49 -101 -49 -140 -89 -190 -193 -49
-100 -90 -239 -125 -418 -12 -65 -26 -118 -30 -118 -4 0 -29 57 -55 128 -166
441 -253 601 -415 762 -182 180 -421 276 -721 287 -514 20 -900 -231 -1058
-688 -68 -197 -95 -349 -94 -534 1 -188 31 -328 102 -474 l28 -58 -90 -7 c-50
-3 -131 -6 -181 -6 -105 0 -168 -23 -228 -83 -72 -72 -66 -137 15 -175 59 -28
157 -39 517 -58 162 -8 414 -22 560 -30 146 -7 432 -17 635 -20 656 -11 1025
29 1194 129 67 40 187 157 239 234 116 172 175 357 170 535 -3 79 -1 88 27
131 17 25 65 85 108 134 109 122 122 148 122 253 0 106 -18 144 -110 227 -60
56 -65 64 -65 102 0 65 82 610 92 615 31 13 43 28 46 55 4 42 -13 61 -54 61
-25 0 -38 -7 -51 -26 -16 -24 -16 -28 0 -57 17 -31 16 -38 -12 -177 -45 -221
-80 -379 -98 -442 -14 -53 -18 -58 -49 -64 -19 -3 -44 -4 -57 0 l-24 6 -7 320
-7 321 25 24 c31 29 33 58 6 85 -25 25 -62 26 -83 2z"/>
</g>
</svg>
